<?xml version="1.0" encoding="UTF-8"?>
<svg version="1.1" xmlns="http://www.w3.org/2000/svg" width="75" height="75">
<path d="M0 0 C0.96780396 -0.00938095 1.93560791 -0.0187619 2.93273926 -0.02842712 C4.490672 -0.01157616 4.490672 -0.01157616 6.08007812 0.00561523 C7.15253784 0.00416 8.22499756 0.00270477 9.32995605 0.00120544 C11.59613768 0.00286454 13.86233055 0.0144269 16.12841797 0.03515625 C19.59846832 0.06410171 23.06699033 0.05576647 26.53710938 0.04272461 C28.73893972 0.04896229 30.94076524 0.05735345 33.14257812 0.06811523 C34.18119995 0.0651796 35.21982178 0.06224396 36.28991699 0.05921936 C37.25772095 0.07190353 38.2255249 0.08458771 39.22265625 0.09765625 C40.07218872 0.10305923 40.92172119 0.10846222 41.79699707 0.11402893 C44.67393601 0.595953 46.04731496 1.45414759 48.11132812 3.50170898 C48.49163575 6.46161075 48.62497743 9.04423312 48.57226562 12.00170898 C48.57089096 13.24984375 48.57089096 13.24984375 48.56948853 14.52319336 C48.56344897 16.28171496 48.54769219 18.04022609 48.52294922 19.79858398 C48.48646403 22.4916775 48.48192968 25.18339425 48.48242188 27.87670898 C48.47258976 29.58505422 48.46093234 31.29339012 48.44726562 33.00170898 C48.44503998 33.80801758 48.44281433 34.61432617 48.44052124 35.44506836 C48.37495408 39.30354336 48.29973327 41.21910127 46.11132812 44.50170898 C42.25682436 45.78654357 38.68123459 45.52019423 34.67382812 45.43139648 C32.9563971 45.42048447 31.2389433 45.41277814 29.52148438 45.40795898 C26.82513736 45.40014207 24.13426372 45.37737111 21.43896484 45.29956055 C10.30358758 44.6739019 10.30358758 44.6739019 0.47851562 49.02612305 C-2.2590548 51.62567501 -4.52884137 54.55981123 -6.88867188 57.50170898 C-7.54867188 57.50170898 -8.20867188 57.50170898 -8.88867188 57.50170898 C-8.99001923 50.02705453 -9.06011537 42.55257698 -9.10839844 35.07739258 C-9.12852459 32.53403095 -9.15582825 29.99071565 -9.19042969 27.44750977 C-9.23890157 23.79358494 -9.26163104 20.14027143 -9.27929688 16.48608398 C-9.29994202 15.34741882 -9.32058716 14.20875366 -9.34185791 13.0355835 C-9.34216003 11.97478577 -9.34246216 10.91398804 -9.34277344 9.82104492 C-9.35165588 8.88838806 -9.36053833 7.9557312 -9.36968994 6.99481201 C-8.35563847 1.73901193 -5.05727183 0.0009892 0 0 Z " fill="#B25209" transform="translate(20.888671875,11.498291015625)"/>
<path d="M0 0 C9.57 0 19.14 0 29 0 C29 1.32 29 2.64 29 4 C19.43 4 9.86 4 0 4 C0 2.68 0 1.36 0 0 Z " fill="#1D1916" transform="translate(23,26)"/>
<path d="M0 0 C0.74886475 0.00523682 1.49772949 0.01047363 2.26928711 0.01586914 C3.07817383 0.0190918 3.88706055 0.02231445 4.72045898 0.02563477 C5.5705957 0.03401367 6.42073242 0.04239258 7.29663086 0.05102539 C8.15063477 0.05553711 9.00463867 0.06004883 9.88452148 0.06469727 C12.00108749 0.07652166 14.11761771 0.0944577 16.23413086 0.11352539 C16.79663086 2.05102539 16.79663086 2.05102539 17.23413086 4.11352539 C16.23413086 5.11352539 16.23413086 5.11352539 14.46826172 5.22705078 C13.71939697 5.22181396 12.97053223 5.21657715 12.19897461 5.21118164 C11.39008789 5.20795898 10.58120117 5.20473633 9.74780273 5.20141602 C8.89766602 5.19303711 8.0475293 5.1846582 7.17163086 5.17602539 C6.31762695 5.17151367 5.46362305 5.16700195 4.58374023 5.16235352 C2.46717422 5.15052912 0.35064401 5.13259308 -1.76586914 5.11352539 C-2.32836914 3.17602539 -2.32836914 3.17602539 -2.76586914 1.11352539 C-1.76586914 0.11352539 -1.76586914 0.11352539 0 0 Z " fill="#261C16" transform="translate(25.765869140625,37.886474609375)"/>
</svg>
