<?xml version="1.0" encoding="UTF-8"?>
<svg version="1.1" xmlns="http://www.w3.org/2000/svg" width="75" height="75">
<path d="M0 0 C1.40572266 -0.02900391 1.40572266 -0.02900391 2.83984375 -0.05859375 C7.47868341 -0.02569418 9.79598526 0.1034092 13.60546875 2.92578125 C15.89717402 6.19087061 16.26798635 8.68076788 16.5 12.625 C17.87285156 12.60759766 17.87285156 12.60759766 19.2734375 12.58984375 C21.05621094 12.57630859 21.05621094 12.57630859 22.875 12.5625 C24.05835938 12.55089844 25.24171875 12.53929687 26.4609375 12.52734375 C29.5 12.625 29.5 12.625 31.5 13.625 C31.542721 15.29111905 31.54063832 16.95882885 31.5 18.625 C30.5 19.625 30.5 19.625 27.9375 19.6875 C27.133125 19.666875 26.32875 19.64625 25.5 19.625 C25.52094727 20.84082764 25.54189453 22.05665527 25.56347656 23.30932617 C25.63598316 27.82857443 25.68183856 32.34777146 25.71972656 36.86743164 C25.73981774 38.82194673 25.76709589 40.7764019 25.80175781 42.73071289 C25.85038601 45.54328208 25.8729936 48.35505527 25.890625 51.16796875 C25.91127014 52.03898727 25.93191528 52.9100058 25.95318604 53.80741882 C25.95471126 57.94945784 25.85028384 60.06648187 23.60058594 63.65356445 C19.71385626 67.30132621 16.03215332 66.81788326 10.94921875 66.86328125 C10.09826126 66.871353 9.24730377 66.87942474 8.37055969 66.88774109 C6.56745441 66.90158294 4.76432291 66.91230465 2.96118164 66.92016602 C0.20863933 66.93736789 -2.54269838 66.98125049 -5.29492188 67.02539062 C-7.04686617 67.03551863 -8.79882067 67.0440344 -10.55078125 67.05078125 C-11.37177811 67.06828934 -12.19277496 67.08579742 -13.03865051 67.10383606 C-17.05874452 67.08864043 -19.01849898 66.9305325 -22.49682617 64.72338867 C-26.33456561 60.70323383 -25.62837393 56.73700593 -25.59765625 51.4609375 C-25.5962413 50.55372955 -25.59482635 49.64652161 -25.59336853 48.71182251 C-25.58776096 45.80784845 -25.57520718 42.90395085 -25.5625 40 C-25.55748598 38.03385528 -25.5529229 36.06770935 -25.54882812 34.1015625 C-25.53778906 29.2760121 -25.52051935 24.45051903 -25.5 19.625 C-26.304375 19.645625 -27.10875 19.66625 -27.9375 19.6875 C-30.5 19.625 -30.5 19.625 -31.5 18.625 C-31.54063832 16.95882885 -31.542721 15.29111905 -31.5 13.625 C-28.61584117 12.18292059 -26.08278472 12.53105113 -22.875 12.5625 C-21.68648437 12.57152344 -20.49796875 12.58054687 -19.2734375 12.58984375 C-18.35820312 12.60144531 -17.44296875 12.61304688 -16.5 12.625 C-16.4071875 11.0471875 -16.4071875 11.0471875 -16.3125 9.4375 C-14.33327695 0.15037648 -8.18245986 -0.16882654 0 0 Z M-7.5 7.625 C-7.83 9.275 -8.16 10.925 -8.5 12.625 C-2.89 12.625 2.72 12.625 8.5 12.625 C8.17 10.975 7.84 9.325 7.5 7.625 C2.55 7.625 -2.4 7.625 -7.5 7.625 Z M-18.5 21.625 C-18.69973733 24.32635323 -18.77981573 26.92297211 -18.765625 29.625 C-18.76753845 30.41648437 -18.7694519 31.20796875 -18.77142334 32.0234375 C-18.77278518 33.6979199 -18.76908882 35.37241285 -18.76074219 37.046875 C-18.7500424 39.61482381 -18.76063725 42.18207303 -18.7734375 44.75 C-18.7721159 46.37500155 -18.76955351 48.00000266 -18.765625 49.625 C-18.76967346 50.39585938 -18.77372192 51.16671875 -18.77789307 51.9609375 C-18.89644711 56.25629437 -18.89644711 56.25629437 -16.5 59.625 C-14.01433457 59.82448557 -11.6424925 59.90489743 -9.15625 59.890625 C-8.06890564 59.89349518 -8.06890564 59.89349518 -6.95959473 59.89642334 C-5.42634738 59.89778487 -3.8930885 59.89409064 -2.35986328 59.88574219 C-0.00917741 59.87504178 2.34074423 59.88563808 4.69140625 59.8984375 C6.17968919 59.8971159 7.66797166 59.89455349 9.15625 59.890625 C9.86148804 59.89467346 10.56672607 59.89872192 11.29333496 59.90289307 C15.34601687 59.97777396 15.34601687 59.97777396 18.5 57.625 C18.69973733 54.92364677 18.77981573 52.32702789 18.765625 49.625 C18.76753845 48.83351563 18.7694519 48.04203125 18.77142334 47.2265625 C18.77278518 45.5520801 18.76908882 43.87758715 18.76074219 42.203125 C18.7500424 39.63517619 18.76063725 37.06792697 18.7734375 34.5 C18.7721159 32.87499845 18.76955351 31.24999734 18.765625 29.625 C18.76967346 28.85414062 18.77372192 28.08328125 18.77789307 27.2890625 C18.89644711 22.99370563 18.89644711 22.99370563 16.5 19.625 C14.01433457 19.42551443 11.6424925 19.34510257 9.15625 19.359375 C8.06890564 19.35650482 8.06890564 19.35650482 6.95959473 19.35357666 C5.42634738 19.35221513 3.8930885 19.35590936 2.35986328 19.36425781 C0.00917741 19.37495822 -2.34074423 19.36436192 -4.69140625 19.3515625 C-6.17968919 19.3528841 -7.66797166 19.35544651 -9.15625 19.359375 C-9.86148804 19.35532654 -10.56672607 19.35127808 -11.29333496 19.34710693 C-15.34601687 19.27222604 -15.34601687 19.27222604 -18.5 21.625 Z " fill="#B35308" transform="translate(37.5,2.375)"/>
<path d="M0 0 C2.5 0.125 2.5 0.125 3.5 1.125 C3.58726223 2.90571246 3.60699041 4.6898314 3.59765625 6.47265625 C3.59282227 8.09204102 3.59282227 8.09204102 3.58789062 9.74414062 C3.57951172 10.88044922 3.57113281 12.01675781 3.5625 13.1875 C3.55798828 14.32767578 3.55347656 15.46785156 3.54882812 16.64257812 C3.53699747 19.47010351 3.5205141 22.2975264 3.5 25.125 C1.125 25.75 1.125 25.75 -1.5 26.125 C-3.5 24.125 -3.5 24.125 -3.74291992 21.80249023 C-3.73881104 20.85575439 -3.73470215 19.90901855 -3.73046875 18.93359375 C-3.72853516 17.90685547 -3.72660156 16.88011719 -3.72460938 15.82226562 C-3.71236328 14.74654297 -3.70011719 13.67082031 -3.6875 12.5625 C-3.68685547 11.48291016 -3.68621094 10.40332031 -3.68554688 9.29101562 C-3.63401712 0.18170086 -3.63401712 0.18170086 0 0 Z " fill="#B45208" transform="translate(43.5,30.875)"/>
<path d="M0 0 C2.5 0.125 2.5 0.125 3.5 1.125 C3.75208722 4.93088144 3.68522344 8.74925456 3.6875 12.5625 C3.69974609 13.63822266 3.71199219 14.71394531 3.72460938 15.82226562 C3.72654297 16.84900391 3.72847656 17.87574219 3.73046875 18.93359375 C3.73457764 19.88032959 3.73868652 20.82706543 3.74291992 21.80249023 C3.5 24.125 3.5 24.125 1.5 26.125 C-1.125 25.75 -1.125 25.75 -3.5 25.125 C-3.52886984 21.14584841 -3.54675406 17.16672347 -3.5625 13.1875 C-3.57087891 12.05119141 -3.57925781 10.91488281 -3.58789062 9.74414062 C-3.59111328 8.66455078 -3.59433594 7.58496094 -3.59765625 6.47265625 C-3.60289307 5.47242432 -3.60812988 4.47219238 -3.61352539 3.44165039 C-3.45473223 0.20124539 -3.25108125 0.16255406 0 0 Z " fill="#B45208" transform="translate(31.5,30.875)"/>
</svg>
