<?xml version="1.0" encoding="UTF-8"?>
<svg version="1.1" xmlns="http://www.w3.org/2000/svg" width="75" height="75">
<path d="M0 0 C1.76192688 -0.00472824 1.76192688 -0.00472824 3.55944824 -0.009552 C4.83340454 -0.00752777 6.10736084 -0.00550354 7.41992188 -0.00341797 C8.72191528 -0.00437469 10.02390869 -0.00533142 11.36535645 -0.00631714 C14.12265202 -0.0077924 16.87991522 -0.00564505 19.63720703 -0.00097656 C23.17486396 0.00472064 26.71244503 0.00144072 30.25009918 -0.00454903 C33.61921286 -0.00902741 36.98830604 -0.00589365 40.35742188 -0.00341797 C41.63137817 -0.0054422 42.90533447 -0.00746643 44.21789551 -0.009552 C45.39251343 -0.00639984 46.56713135 -0.00324768 47.77734375 0 C48.81499878 0.00079559 49.85265381 0.00159119 50.92175293 0.00241089 C53.38867188 0.12939453 53.38867188 0.12939453 55.38867188 1.12939453 C55.43139288 2.79551358 55.4293102 4.46322338 55.38867188 6.12939453 C53.62143377 7.89663264 51.08548347 7.25702286 48.69140625 7.25878906 C47.4734436 7.26194122 46.25548096 7.26509338 45.00061035 7.26834106 C43.66121383 7.26655128 42.32181763 7.26450033 40.98242188 7.26220703 C39.61861148 7.26288013 38.2548012 7.2638502 36.89099121 7.2651062 C34.02936666 7.26658291 31.16777328 7.2644295 28.30615234 7.25976562 C24.63048574 7.25406834 20.95489214 7.25734749 17.27922821 7.26333809 C14.46205084 7.26694444 11.6448909 7.26580478 8.82771301 7.2632103 C7.47207124 7.26254123 6.11642791 7.26336874 4.76078796 7.26568985 C2.86917143 7.26821754 0.97754938 7.26368467 -0.9140625 7.25878906 C-2.53169495 7.25759567 -2.53169495 7.25759567 -4.18200684 7.25637817 C-6.61132812 7.12939453 -6.61132812 7.12939453 -7.61132812 6.12939453 C-7.65196645 4.46322338 -7.65404913 2.79551358 -7.61132812 1.12939453 C-4.96232773 -0.19510566 -2.96633354 0.00227435 0 0 Z " fill="#B35309" transform="translate(13.611328125,14.87060546875)"/>
<path d="M0 0 C14.19 0 28.38 0 43 0 C44 5 44 5 43 7 C28.81 7 14.62 7 0 7 C-1 2 -1 2 0 0 Z " fill="#B45108" transform="translate(16,34)"/>
<path d="M0 0 C1.02996094 -0.00128906 2.05992188 -0.00257812 3.12109375 -0.00390625 C4.74724609 0.00189453 4.74724609 0.00189453 6.40625 0.0078125 C7.49035156 0.00394531 8.57445312 0.00007813 9.69140625 -0.00390625 C10.72136719 -0.00261719 11.75132813 -0.00132813 12.8125 0 C14.24045898 0.00169189 14.24045898 0.00169189 15.69726562 0.00341797 C17.90625 0.1328125 17.90625 0.1328125 18.90625 1.1328125 C19.03125 3.6328125 19.03125 3.6328125 18.90625 6.1328125 C17.22108046 7.81798204 15.11857212 7.26289269 12.8125 7.265625 C11.78253906 7.26691406 10.75257812 7.26820312 9.69140625 7.26953125 C8.06525391 7.26373047 8.06525391 7.26373047 6.40625 7.2578125 C5.32214844 7.26167969 4.23804688 7.26554687 3.12109375 7.26953125 C2.09113281 7.26824219 1.06117187 7.26695313 0 7.265625 C-0.95197266 7.26449707 -1.90394531 7.26336914 -2.88476562 7.26220703 C-5.09375 7.1328125 -5.09375 7.1328125 -6.09375 6.1328125 C-6.21875 3.6328125 -6.21875 3.6328125 -6.09375 1.1328125 C-4.40858046 -0.55235704 -2.30607212 0.00273231 0 0 Z " fill="#B35208" transform="translate(31.09375,52.8671875)"/>
</svg>
