<?xml version="1.0" encoding="UTF-8"?>
<svg version="1.1" xmlns="http://www.w3.org/2000/svg" width="75" height="75">
<path d="M0 0 C0.86625 -0.00773438 1.7325 -0.01546875 2.625 -0.0234375 C5.51642839 0.46163766 6.22871427 1.07562493 8 3.375 C8.38095093 5.6517334 8.38095093 5.6517334 8.38818359 8.34960938 C8.40236832 9.8663324 8.40236832 9.8663324 8.4168396 11.41369629 C8.41076691 12.50436401 8.40469421 13.59503174 8.3984375 14.71875 C8.40130768 15.83938843 8.40417786 16.96002686 8.40713501 18.11462402 C8.40917747 20.48511256 8.40363499 22.85561788 8.39111328 25.22607422 C8.375063 28.86073383 8.39095669 32.49428135 8.41015625 36.12890625 C8.40817385 38.42968996 8.40433025 40.73047298 8.3984375 43.03125 C8.40754654 44.66725159 8.40754654 44.66725159 8.4168396 46.33630371 C8.40738312 47.34745239 8.39792664 48.35860107 8.38818359 49.40039062 C8.38579681 50.2906897 8.38341003 51.18098877 8.38095093 52.0982666 C7.92225785 54.83962193 7.20363444 55.72789494 5 57.375 C2.625 57.7734375 2.625 57.7734375 0 57.75 C-1.299375 57.76160156 -1.299375 57.76160156 -2.625 57.7734375 C-5.51642839 57.28836234 -6.22871427 56.67437507 -8 54.375 C-8.38095093 52.0982666 -8.38095093 52.0982666 -8.38818359 49.40039062 C-8.39764008 48.38924194 -8.40709656 47.37809326 -8.4168396 46.33630371 C-8.41076691 45.24563599 -8.40469421 44.15496826 -8.3984375 43.03125 C-8.40130768 41.91061157 -8.40417786 40.78997314 -8.40713501 39.63537598 C-8.40917747 37.26488744 -8.40363499 34.89438212 -8.39111328 32.52392578 C-8.375063 28.88926617 -8.39095669 25.25571865 -8.41015625 21.62109375 C-8.40817385 19.32031004 -8.40433025 17.01952702 -8.3984375 14.71875 C-8.40451019 13.62808228 -8.41058289 12.53741455 -8.4168396 11.41369629 C-8.40738312 10.40254761 -8.39792664 9.39139893 -8.38818359 8.34960938 C-8.38579681 7.4593103 -8.38341003 6.56901123 -8.38095093 5.6517334 C-7.55666763 0.72544716 -4.56073322 -0.04072083 0 0 Z " fill="#44403B" transform="translate(14,8.625)"/>
<path d="M0 0 C0.86625 -0.00773438 1.7325 -0.01546875 2.625 -0.0234375 C5.49518626 0.45807401 6.20975745 1.12858101 8 3.375 C8.38768005 5.2653656 8.38768005 5.2653656 8.40405273 7.41577148 C8.41673691 8.22348495 8.42942108 9.03119843 8.44248962 9.86338806 C8.43955399 10.73218094 8.43661835 11.60097382 8.43359375 12.49609375 C8.4388356 13.39240005 8.44407745 14.28870636 8.44947815 15.21217346 C8.4559011 17.10766565 8.45455781 19.00319769 8.44604492 20.89868164 C8.43754131 23.79841176 8.46628127 26.69616803 8.49804688 29.59570312 C8.49965914 31.43749941 8.49908087 33.27929918 8.49609375 35.12109375 C8.50732773 35.9878624 8.51856171 36.85463104 8.53013611 37.74766541 C8.46058565 43.75943055 8.46058565 43.75943055 6.09399414 46.92236328 C3.81555323 48.50295363 2.74145253 48.89281599 0 48.8125 C-0.66 48.81121094 -1.32 48.80992188 -2 48.80859375 C-4.87097373 48.18617562 -5.97205611 47.56555345 -8 45.375 C-8.61514998 42.25841751 -8.53590413 39.16741469 -8.49609375 36 C-8.49754898 35.07912598 -8.49900421 34.15825195 -8.50050354 33.20947266 C-8.49884367 31.26266313 -8.48727256 29.3158406 -8.46655273 27.36914062 C-8.43760822 24.38615281 -8.44593961 21.40494266 -8.45898438 18.421875 C-8.45274674 16.53124135 -8.44435561 14.64061331 -8.43359375 12.75 C-8.43652939 11.85619629 -8.43946503 10.96239258 -8.44248962 10.04150391 C-8.42980545 9.21054199 -8.41712128 8.37958008 -8.40405273 7.5234375 C-8.39864975 6.79302246 -8.39324677 6.06260742 -8.38768005 5.31005859 C-7.45060174 0.63274435 -4.29539974 -0.03835178 0 0 Z " fill="#923F0D" transform="translate(61,8.625)"/>
<path d="M0 0 C0.7528125 -0.0103125 1.505625 -0.020625 2.28125 -0.03125 C5.41515291 0.71912112 6.50808367 1.98151464 8.5 4.5 C9.00170898 7.64453125 9.00170898 7.64453125 8.99609375 11.3125 C8.99754898 11.96323486 8.99900421 12.61396973 9.00050354 13.28442383 C8.99884833 14.65613293 8.98732896 16.02786132 8.96655273 17.39941406 C8.9375879 19.49364461 8.94595005 21.58534258 8.95898438 23.6796875 C8.95274639 25.01563725 8.94435497 26.35157903 8.93359375 27.6875 C8.92384521 28.89792969 8.91409668 30.10835937 8.90405273 31.35546875 C8.47158162 34.72116541 7.89993071 36.14056387 5.5 38.5 C2.90625 39.03125 2.90625 39.03125 0 39 C-0.9590625 39.0103125 -1.918125 39.020625 -2.90625 39.03125 C-5.5 38.5 -5.5 38.5 -7.13500977 36.89257812 C-8.95400495 33.70421239 -8.90410706 31.34872385 -8.93359375 27.6875 C-8.9388356 27.03676514 -8.94407745 26.38603027 -8.94947815 25.71557617 C-8.95588282 24.34392724 -8.95458142 22.97222326 -8.94604492 21.60058594 C-8.93752508 19.50616479 -8.96632474 17.41446503 -8.99804688 15.3203125 C-8.99965892 13.98437581 -8.99908128 12.64843432 -8.99609375 11.3125 C-8.99794678 10.10207031 -8.9997998 8.89164063 -9.00170898 7.64453125 C-8.16112868 2.37607657 -5.29385867 -0.07251861 0 0 Z " fill="#B35308" transform="translate(37.5,8.5)"/>
</svg>
