<svg width="24" height="24" viewBox="0 0 24 24" fill="none" xmlns="http://www.w3.org/2000/svg">
  <path d="M16 11C17.6569 11 19 9.6569 19 8C19 6.3431 17.6569 5 16 5C14.3431 5 13 6.3431 13 8C13 9.6569 14.3431 11 16 11Z" stroke="#B45309" stroke-width="1.5"></path>
  <path d="M8 11C9.6569 11 11 9.6569 11 8C11 6.3431 9.6569 5 8 5C6.3431 5 5 6.3431 5 8C5 9.6569 6.3431 11 8 11Z" stroke="#B45309" stroke-width="1.5"></path>
  <path d="M2 19C2 16.7909 3.7909 15 6 15H10C12.2091 15 14 16.7909 14 19" stroke="#B45309" stroke-width="1.5" stroke-linecap="round"></path>
  <path d="M10 19C10 17.3431 11.3431 16 13 16H17C19.2091 16 21 17.7909 21 20" stroke="#B45309" stroke-width="1.5" stroke-linecap="round"></path>
</svg>