<?xml version="1.0" encoding="UTF-8"?>
<svg version="1.1" xmlns="http://www.w3.org/2000/svg" width="75" height="75">
<path d="M0 0 C6.27012063 4.67987265 9.49241455 11.07398798 11.15625 18.609375 C12.0527271 25.39698731 9.46794223 31.32446176 7.15625 37.609375 C7.6409375 38.06787842 8.125625 38.52638184 8.625 38.9987793 C10.8151287 41.08492953 12.98564062 43.19043059 15.15625 45.296875 C15.919375 46.01810547 16.6825 46.73933594 17.46875 47.48242188 C18.5515625 48.54106445 18.5515625 48.54106445 19.65625 49.62109375 C20.66171875 50.58728638 20.66171875 50.58728638 21.6875 51.57299805 C23.51336186 54.10449967 23.52784286 55.55308821 23.15625 58.609375 C22.15625 59.609375 22.15625 59.609375 19.84301758 59.890625 C16.44002571 59.53440086 15.51408987 58.5508669 13.16796875 56.109375 C12.46220703 55.3875 11.75644531 54.665625 11.02929688 53.921875 C10.30806641 53.15875 9.58683594 52.395625 8.84375 51.609375 C8.10318359 50.84625 7.36261719 50.083125 6.59960938 49.296875 C4.77341844 47.41177468 2.95989241 45.51601931 1.15625 43.609375 C0.37121094 43.898125 -0.41382813 44.186875 -1.22265625 44.484375 C-10.67577738 47.82486443 -17.564698 48.80970319 -26.84375 44.609375 C-33.61096548 40.92810697 -37.63542268 36.01795697 -39.84375 28.609375 C-40.92065622 20.75653671 -40.52010612 13.21862498 -35.84375 6.609375 C-26.25476005 -3.90758172 -12.87041228 -7.43809541 0 0 Z M-28.421875 9.328125 C-32.21021877 14.4663384 -33.66176757 19.15740542 -32.84375 25.609375 C-30.94513966 31.51134084 -27.86155231 35.08623721 -22.84375 38.609375 C-17.57824666 40.36454278 -11.74771527 40.68153436 -6.484375 38.73828125 C-1.81353467 36.06044986 1.58843668 32.84195195 3.15625 27.609375 C3.8988281 22.3649172 3.98237303 17.44262891 1.46875 12.671875 C-1.9173875 8.18753075 -5.3772235 5.13491728 -10.84375 3.609375 C-17.73761693 2.93128973 -23.5614927 4.03463933 -28.421875 9.328125 Z " fill="#B45208" transform="translate(45.84375,9.390625)"/>
</svg>
