<?xml version="1.0" encoding="UTF-8"?>
<svg version="1.1" xmlns="http://www.w3.org/2000/svg" width="75" height="75">
<path d="M0 0 C2.5 0.125 2.5 0.125 3.5 1.125 C3.64115161 3.79558851 3.54247107 6.44932238 3.5 9.125 C5.10256108 9.63012244 6.70711792 10.12891627 8.3125 10.625 C9.20582031 10.9034375 10.09914062 11.181875 11.01953125 11.46875 C13.55573395 12.25288351 13.55573395 12.25288351 16.5 12.125 C16.95375 11.609375 17.4075 11.09375 17.875 10.5625 C18.41125 10.088125 18.9475 9.61375 19.5 9.125 C22.1875 9.4375 22.1875 9.4375 24.5 10.125 C25.25 12.3125 25.25 12.3125 25.5 15.125 C23.5625 17.9375 23.5625 17.9375 21.5 20.125 C21.78875 20.75148438 22.0775 21.37796875 22.375 22.0234375 C22.74625 22.84070313 23.1175 23.65796875 23.5 24.5 C23.87125 25.31210937 24.2425 26.12421875 24.625 26.9609375 C25.5 29.125 25.5 29.125 25.5 31.125 C26.799375 31.104375 28.09875 31.08375 29.4375 31.0625 C30.79165633 31.04100546 32.14756083 31.05351801 33.5 31.125 C34.5 32.125 34.5 32.125 34.625 34.625 C34.5 37.125 34.5 37.125 33.5 38.125 C30.82941149 38.26615161 28.17567762 38.16747107 25.5 38.125 C24.99487756 39.72756108 24.49608373 41.33211792 24 42.9375 C23.7215625 43.83082031 23.443125 44.72414062 23.15625 45.64453125 C22.37211649 48.18073395 22.37211649 48.18073395 22.5 51.125 C23.015625 51.57875 23.53125 52.0325 24.0625 52.5 C24.536875 53.03625 25.01125 53.5725 25.5 54.125 C25.1875 56.8125 25.1875 56.8125 24.5 59.125 C22.3125 59.875 22.3125 59.875 19.5 60.125 C16.6875 58.1875 16.6875 58.1875 14.5 56.125 C13.87351563 56.41375 13.24703125 56.7025 12.6015625 57 C11.78429688 57.37125 10.96703125 57.7425 10.125 58.125 C9.31289063 58.49625 8.50078125 58.8675 7.6640625 59.25 C5.5 60.125 5.5 60.125 3.5 60.125 C3.520625 61.424375 3.54125 62.72375 3.5625 64.0625 C3.58399454 65.41665633 3.57148199 66.77256083 3.5 68.125 C2.5 69.125 2.5 69.125 0 69.25 C-2.5 69.125 -2.5 69.125 -3.5 68.125 C-3.64115161 65.45441149 -3.54247107 62.80067762 -3.5 60.125 C-5.10256108 59.61987756 -6.70711792 59.12108373 -8.3125 58.625 C-9.20582031 58.3465625 -10.09914063 58.068125 -11.01953125 57.78125 C-13.55573395 56.99711649 -13.55573395 56.99711649 -16.5 57.125 C-16.95375 57.640625 -17.4075 58.15625 -17.875 58.6875 C-18.41125 59.161875 -18.9475 59.63625 -19.5 60.125 C-22.1875 59.8125 -22.1875 59.8125 -24.5 59.125 C-25.25 56.9375 -25.25 56.9375 -25.5 54.125 C-23.5625 51.3125 -23.5625 51.3125 -21.5 49.125 C-21.78875 48.49851563 -22.0775 47.87203125 -22.375 47.2265625 C-22.74625 46.40929688 -23.1175 45.59203125 -23.5 44.75 C-23.87125 43.93789063 -24.2425 43.12578125 -24.625 42.2890625 C-25.5 40.125 -25.5 40.125 -25.5 38.125 C-26.799375 38.145625 -28.09875 38.16625 -29.4375 38.1875 C-30.79165633 38.20899454 -32.14756083 38.19648199 -33.5 38.125 C-34.5 37.125 -34.5 37.125 -34.625 34.625 C-34.5 32.125 -34.5 32.125 -33.5 31.125 C-30.82941149 30.98384839 -28.17567762 31.08252893 -25.5 31.125 C-24.99487756 29.52243892 -24.49608373 27.91788208 -24 26.3125 C-23.7215625 25.41917969 -23.443125 24.52585937 -23.15625 23.60546875 C-22.37211649 21.06926605 -22.37211649 21.06926605 -22.5 18.125 C-23.015625 17.67125 -23.53125 17.2175 -24.0625 16.75 C-24.536875 16.21375 -25.01125 15.6775 -25.5 15.125 C-25.1875 12.4375 -25.1875 12.4375 -24.5 10.125 C-22.3125 9.375 -22.3125 9.375 -19.5 9.125 C-16.6875 11.0625 -16.6875 11.0625 -14.5 13.125 C-13.87351562 12.83625 -13.24703125 12.5475 -12.6015625 12.25 C-11.78429687 11.87875 -10.96703125 11.5075 -10.125 11.125 C-9.31289063 10.75375 -8.50078125 10.3825 -7.6640625 10 C-5.5 9.125 -5.5 9.125 -3.5 9.125 C-3.520625 7.825625 -3.54125 6.52625 -3.5625 5.1875 C-3.58399454 3.83334367 -3.57148199 2.47743917 -3.5 1.125 C-2.5 0.125 -2.5 0.125 0 0 Z M-13.875 22.4375 C-17.37142591 27.00095508 -18.75086412 30.86175021 -18.375 36.625 C-17.57556975 42.15594184 -15.15596627 45.55618985 -11.125 49.375 C-5.95689833 52.82040111 -1.72724794 53.53872827 4.32421875 52.6640625 C9.81479849 51.30373933 13.44250193 47.7112471 16.5 43.125 C18.92756995 38.03866295 18.83241649 33.50294194 17.5 28.125 C14.63569779 22.7032851 11.17463033 19.23942931 5.5 16.875 C-1.95879171 15.01030207 -8.64425411 16.65682239 -13.875 22.4375 Z " fill="#B35208" transform="translate(37.5,2.875)"/>
<path d="M0 0 C3.0625 1.9375 3.0625 1.9375 5 5 C6.03945854 9.75058323 5.669717 12.94141507 3.0625 17.0625 C-1.05858493 19.669717 -4.24941677 20.03945854 -9 19 C-12.0625 17.0625 -12.0625 17.0625 -14 14 C-15.03945854 9.24941677 -14.669717 6.05858493 -12.0625 1.9375 C-7.94141507 -0.669717 -4.75058323 -1.03945854 0 0 Z " fill="#B55108" transform="translate(42,28)"/>
</svg>
