<?xml version="1.0" encoding="UTF-8"?>
<svg version="1.1" xmlns="http://www.w3.org/2000/svg" width="75" height="75">
<path d="M0 0 C1.32529724 -0.00574036 1.32529724 -0.00574036 2.67736816 -0.01159668 C4.53638862 -0.01430602 6.39544783 -0.00701362 8.25439453 0.00976562 C11.08583264 0.03119009 13.91473374 0.00993145 16.74609375 -0.015625 C18.55990138 -0.01298155 20.37370745 -0.00785621 22.1875 0 C23.44560486 -0.01214539 23.44560486 -0.01214539 24.72912598 -0.02453613 C30.4959432 0.06661237 33.95865166 1.00697202 38.59375 4.53125 C42.7039824 9.93699025 43.18931831 14.274955 43.125 20.9375 C43.1288269 21.82103149 43.13265381 22.70456299 43.13659668 23.61486816 C43.13930602 25.47388862 43.13201362 27.33294783 43.11523438 29.19189453 C43.09380991 32.02333264 43.11506855 34.85223374 43.140625 37.68359375 C43.13798155 39.49740138 43.13285621 41.31120745 43.125 43.125 C43.13309692 43.96373657 43.14119385 44.80247314 43.14953613 45.66662598 C43.05838763 51.4334432 42.11802798 54.89615166 38.59375 59.53125 C33.18800975 63.6414824 28.850045 64.12681831 22.1875 64.0625 C21.30396851 64.0663269 20.42043701 64.07015381 19.51013184 64.07409668 C17.65111138 64.07680602 15.79205217 64.06951362 13.93310547 64.05273438 C11.10166736 64.03130991 8.27276626 64.05256855 5.44140625 64.078125 C3.62759862 64.07548155 1.81379255 64.07035621 0 64.0625 C-0.83873657 64.07059692 -1.67747314 64.07869385 -2.54162598 64.08703613 C-8.3084432 63.99588763 -11.77115166 63.05552798 -16.40625 59.53125 C-20.5164824 54.12550975 -21.00181831 49.787545 -20.9375 43.125 C-20.9413269 42.24146851 -20.94515381 41.35793701 -20.94909668 40.44763184 C-20.95180602 38.58861138 -20.94451362 36.72955217 -20.92773438 34.87060547 C-20.90630991 32.03916736 -20.92756855 29.21026626 -20.953125 26.37890625 C-20.95048155 24.56509862 -20.94535621 22.75129255 -20.9375 20.9375 C-20.94559692 20.09876343 -20.95369385 19.26002686 -20.96203613 18.39587402 C-20.87088763 12.6290568 -19.93052798 9.16634834 -16.40625 4.53125 C-11.00050975 0.4210176 -6.662545 -0.06431831 0 0 Z M-12.40625 11.53125 C-13.99582359 14.71039717 -13.61158722 18.15109382 -13.64453125 21.64453125 C-13.652603 22.45109665 -13.66067474 23.25766205 -13.66899109 24.08866882 C-13.68283143 25.79761607 -13.69355382 27.50659096 -13.70141602 29.21557617 C-13.71861506 31.8232903 -13.76249794 34.42973187 -13.80664062 37.03710938 C-13.81676897 38.69790735 -13.82528463 40.3587161 -13.83203125 42.01953125 C-13.84953934 42.79678055 -13.86704742 43.57402985 -13.88508606 44.37483215 C-13.87006587 48.14293467 -13.55677176 50.29620107 -11.50463867 53.50073242 C-7.74049138 57.14313068 -4.28220644 56.72248143 0.70703125 56.76953125 C1.91687935 56.78163887 1.91687935 56.78163887 3.15116882 56.79399109 C4.86011607 56.80783143 6.56909096 56.81855382 8.27807617 56.82641602 C10.8857903 56.84361506 13.49223187 56.88749794 16.09960938 56.93164062 C17.76040735 56.94176897 19.4212161 56.95028463 21.08203125 56.95703125 C21.85928055 56.97453934 22.63652985 56.99204742 23.43733215 57.01008606 C27.20543467 56.99506587 29.35870107 56.68177176 32.56323242 54.62963867 C36.20563068 50.86549138 35.78498143 47.40720644 35.83203125 42.41796875 C35.840103 41.61140335 35.84817474 40.80483795 35.85649109 39.97383118 C35.87033143 38.26488393 35.88105382 36.55590904 35.88891602 34.84692383 C35.90611506 32.2392097 35.94999794 29.63276813 35.99414062 27.02539062 C36.00426897 25.36459265 36.01278463 23.7037839 36.01953125 22.04296875 C36.03703934 21.26571945 36.05454742 20.48847015 36.07258606 19.68766785 C36.05756587 15.91956533 35.74427176 13.76629893 33.69213867 10.56176758 C29.92799138 6.91936932 26.46970644 7.34001857 21.48046875 7.29296875 C20.67390335 7.284897 19.86733795 7.27682526 19.03633118 7.26850891 C17.32738393 7.25466857 15.61840904 7.24394618 13.90942383 7.23608398 C11.3017097 7.21888494 8.69526813 7.17500206 6.08789062 7.13085938 C4.42709265 7.12073103 2.7662839 7.11221537 1.10546875 7.10546875 C0.32821945 7.08796066 -0.44902985 7.07045258 -1.24983215 7.05241394 C-6.27756852 7.07245521 -8.89642244 7.90410465 -12.40625 11.53125 Z " fill="#B35309" transform="translate(26.40625,5.46875)"/>
<path d="M0 0 C3.53571429 0.53571429 3.53571429 0.53571429 5 2 C5.07226502 3.85287502 5.0838122 5.70833878 5.0625 7.5625 C5.05347656 8.57441406 5.04445313 9.58632813 5.03515625 10.62890625 C5.02355469 11.41136719 5.01195313 12.19382812 5 13 C6.15628906 12.96519531 6.15628906 12.96519531 7.3359375 12.9296875 C8.33882812 12.91164063 9.34171875 12.89359375 10.375 12.875 C11.37273438 12.85179687 12.37046875 12.82859375 13.3984375 12.8046875 C16 13 16 13 18 15 C17.46428571 18.53571429 17.46428571 18.53571429 16 20 C14.14712498 20.07226502 12.29166122 20.0838122 10.4375 20.0625 C9.42558594 20.05347656 8.41367187 20.04445313 7.37109375 20.03515625 C6.19740234 20.01775391 6.19740234 20.01775391 5 20 C5.02320312 20.77085938 5.04640625 21.54171875 5.0703125 22.3359375 C5.09738281 23.84027344 5.09738281 23.84027344 5.125 25.375 C5.14820312 26.37273438 5.17140625 27.37046875 5.1953125 28.3984375 C5 31 5 31 3 33 C-0.53571429 32.46428571 -0.53571429 32.46428571 -2 31 C-2.07226502 29.14712498 -2.0838122 27.29166122 -2.0625 25.4375 C-2.05347656 24.42558594 -2.04445313 23.41367187 -2.03515625 22.37109375 C-2.02355469 21.58863281 -2.01195312 20.80617188 -2 20 C-2.77085938 20.02320312 -3.54171875 20.04640625 -4.3359375 20.0703125 C-5.33882812 20.08835937 -6.34171875 20.10640625 -7.375 20.125 C-8.37273438 20.14820312 -9.37046875 20.17140625 -10.3984375 20.1953125 C-13 20 -13 20 -15 18 C-14.46428571 14.46428571 -14.46428571 14.46428571 -13 13 C-11.14712498 12.92773498 -9.29166122 12.9161878 -7.4375 12.9375 C-6.42558594 12.94652344 -5.41367187 12.95554687 -4.37109375 12.96484375 C-3.19740234 12.98224609 -3.19740234 12.98224609 -2 13 C-2.02320313 12.22914062 -2.04640625 11.45828125 -2.0703125 10.6640625 C-2.08835937 9.66117188 -2.10640625 8.65828125 -2.125 7.625 C-2.14820313 6.62726562 -2.17140625 5.62953125 -2.1953125 4.6015625 C-2 2 -2 2 0 0 Z " fill="#B45208" transform="translate(36,21)"/>
</svg>
