<?xml version="1.0" encoding="UTF-8"?>
<svg version="1.1" xmlns="http://www.w3.org/2000/svg" width="75" height="75">
<path d="M0 0 C0.80695312 -0.01546875 1.61390625 -0.0309375 2.4453125 -0.046875 C6.04906915 -0.02308783 8.37971557 0.14008187 11.53125 1.96875 C13.7344506 5.7657553 13.58270073 9.18577879 13.5 13.5 C13.51546875 14.30695312 13.5309375 15.11390625 13.546875 15.9453125 C13.52308783 19.54906915 13.35991813 21.87971557 11.53125 25.03125 C7.7342447 27.2344506 4.31422121 27.08270073 0 27 C-0.80695312 27.01546875 -1.61390625 27.0309375 -2.4453125 27.046875 C-6.04906915 27.02308783 -8.37971557 26.85991813 -11.53125 25.03125 C-13.7344506 21.2342447 -13.58270073 17.81422121 -13.5 13.5 C-13.51546875 12.69304688 -13.5309375 11.88609375 -13.546875 11.0546875 C-13.52308783 7.45093085 -13.35991813 5.12028443 -11.53125 1.96875 C-7.7342447 -0.2344506 -4.31422121 -0.08270073 0 0 Z " fill="#923F0D" transform="translate(53,39.5)"/>
<path d="M0 0 C0.80695312 -0.01546875 1.61390625 -0.0309375 2.4453125 -0.046875 C6.04906915 -0.02308783 8.37971557 0.14008187 11.53125 1.96875 C13.7344506 5.7657553 13.58270073 9.18577879 13.5 13.5 C13.51546875 14.30695312 13.5309375 15.11390625 13.546875 15.9453125 C13.52308783 19.54906915 13.35991813 21.87971557 11.53125 25.03125 C7.7342447 27.2344506 4.31422121 27.08270073 0 27 C-0.80695312 27.01546875 -1.61390625 27.0309375 -2.4453125 27.046875 C-6.04906915 27.02308783 -8.37971557 26.85991813 -11.53125 25.03125 C-13.7344506 21.2342447 -13.58270073 17.81422121 -13.5 13.5 C-13.51546875 12.69304688 -13.5309375 11.88609375 -13.546875 11.0546875 C-13.52308783 7.45093085 -13.35991813 5.12028443 -11.53125 1.96875 C-7.7342447 -0.2344506 -4.31422121 -0.08270073 0 0 Z " fill="#443F3B" transform="translate(22,39.5)"/>
<path d="M0 0 C0.80695312 -0.01546875 1.61390625 -0.0309375 2.4453125 -0.046875 C6.04906915 -0.02308783 8.37971557 0.14008187 11.53125 1.96875 C13.7344506 5.7657553 13.58270073 9.18577879 13.5 13.5 C13.51546875 14.30695312 13.5309375 15.11390625 13.546875 15.9453125 C13.52308783 19.54906915 13.35991813 21.87971557 11.53125 25.03125 C7.7342447 27.2344506 4.31422121 27.08270073 0 27 C-0.80695312 27.01546875 -1.61390625 27.0309375 -2.4453125 27.046875 C-6.04906915 27.02308783 -8.37971557 26.85991813 -11.53125 25.03125 C-13.7344506 21.2342447 -13.58270073 17.81422121 -13.5 13.5 C-13.51546875 12.69304688 -13.5309375 11.88609375 -13.546875 11.0546875 C-13.52308783 7.45093085 -13.35991813 5.12028443 -11.53125 1.96875 C-7.7342447 -0.2344506 -4.31422121 -0.08270073 0 0 Z " fill="#443F3B" transform="translate(53,8.5)"/>
<path d="M0 0 C0.80695312 -0.01546875 1.61390625 -0.0309375 2.4453125 -0.046875 C6.04906915 -0.02308783 8.37971557 0.14008187 11.53125 1.96875 C13.7344506 5.7657553 13.58270073 9.18577879 13.5 13.5 C13.51546875 14.30695312 13.5309375 15.11390625 13.546875 15.9453125 C13.52308783 19.54906915 13.35991813 21.87971557 11.53125 25.03125 C7.7342447 27.2344506 4.31422121 27.08270073 0 27 C-0.80695312 27.01546875 -1.61390625 27.0309375 -2.4453125 27.046875 C-6.04906915 27.02308783 -8.37971557 26.85991813 -11.53125 25.03125 C-13.7344506 21.2342447 -13.58270073 17.81422121 -13.5 13.5 C-13.51546875 12.69304688 -13.5309375 11.88609375 -13.546875 11.0546875 C-13.52308783 7.45093085 -13.35991813 5.12028443 -11.53125 1.96875 C-7.7342447 -0.2344506 -4.31422121 -0.08270073 0 0 Z " fill="#B45208" transform="translate(22,8.5)"/>
</svg>
