<?xml version="1.0" encoding="UTF-8"?>
<svg version="1.1" xmlns="http://www.w3.org/2000/svg" width="75" height="75">
<path d="M0 0 C3.22314687 1.53287586 5.37735598 3.14150688 7.890625 5.6953125 C8.95410156 6.76845703 8.95410156 6.76845703 10.0390625 7.86328125 C10.76867188 8.60964844 11.49828125 9.35601562 12.25 10.125 C12.99507812 10.87910156 13.74015625 11.63320313 14.5078125 12.41015625 C16.3431342 14.26900772 18.1736191 16.13237005 20 18 C18.39626852 22.00517396 15.57886014 24.6771098 12.5546875 27.640625 C12.02481232 28.16767029 11.49493713 28.69471558 10.94900513 29.23773193 C9.26232175 30.91325675 7.56880436 32.58167722 5.875 34.25 C4.72740612 35.38755851 3.58026539 36.52557436 2.43359375 37.6640625 C-0.37238137 40.44803465 -3.18450464 43.2256576 -6 46 C-4.73555054 46.03758423 -4.73555054 46.03758423 -3.44555664 46.07592773 C-0.32758326 46.17088155 2.79021503 46.27012448 5.90795898 46.37231445 C7.25914147 46.41571223 8.61038053 46.4573837 9.96166992 46.49731445 C11.90036701 46.55489952 13.83886276 46.61914298 15.77734375 46.68359375 C16.94515381 46.72025146 18.11296387 46.75690918 19.31616211 46.79467773 C22 47 22 47 23 48 C23.125 50.5 23.125 50.5 23 53 C21.30704655 54.69295345 19.17103516 54.12749729 16.85351562 54.12939453 C15.75567749 54.13254669 14.65783936 54.13569885 13.5267334 54.13894653 C12.33197388 54.1369223 11.13721436 54.13489807 9.90625 54.1328125 C8.68925415 54.13376923 7.4722583 54.13472595 6.21838379 54.13571167 C3.63924101 54.13639372 1.06009653 54.13453772 -1.51904297 54.13037109 C-5.48278636 54.12502322 -9.44641642 54.13031529 -13.41015625 54.13671875 C-15.90885442 54.13605797 -18.40755252 54.13477682 -20.90625 54.1328125 C-22.69838928 54.13584885 -22.69838928 54.13584885 -24.5267334 54.13894653 C-25.62457153 54.13579437 -26.72240967 54.13264221 -27.85351562 54.12939453 C-29.31126404 54.12820114 -29.31126404 54.12820114 -30.79846191 54.12698364 C-33 54 -33 54 -34 53 C-34.04063832 51.33382885 -34.042721 49.66611905 -34 48 C-32.515 47.505 -32.515 47.505 -31 47 C-31.17982422 46.03642578 -31.35964844 45.07285156 -31.54492188 44.08007812 C-32.22616164 38.73462807 -32.56166049 33.63275329 -29.72851562 28.85644531 C-25.54672388 23.52803326 -20.50016615 19.04117709 -15.5 14.5 C-14.00287568 13.0832582 -12.50934471 11.662709 -11.01953125 10.23828125 C-7.38634985 6.78017804 -3.70826116 3.37739366 0 0 Z " fill="#B35308" transform="translate(43,12)"/>
</svg>
